/* XPM */
static char *_4054_ca631d88574d74683e219810dd891849a816f9b8d928e31a0c5c85bc8028305d[] = {
/* columns rows colors chars-per-pixel */
"60 60 2 1 ",
"  c #FFEB3B",
". c #3F51B5",
/* pixels */
"............................................................",
".                                                          .",
".                                                          .",
".                                                          .",
".                                                          .",
".                                                          .",
".                                                          .",
".                                                          .",
".                                                          .",
".                                                          .",
".                                                          .",
".                                                          .",
".                                                          .",
".                                                          .",
".                                                          .",
".                                                          .",
".                                                          .",
".                                                          .",
".                                                          .",
".                                                          .",
".                                                          .",
".                                                          .",
".                                                          .",
".                                                          .",
".                                                          .",
".                                                          .",
".                                                          .",
".                                                          .",
".                                                          .",
".                                                          .",
".                                                          .",
".                                                          .",
".                                                          .",
".                                                          .",
".                                                          .",
".                                                          .",
".                                                          .",
".                                                          .",
".                                                          .",
".                                                          .",
".                                                          .",
".                                                          .",
".                                                          .",
".                                                          .",
".                                                          .",
".                                                          .",
".                                                          .",
".                                                          .",
".                                                          .",
".                                                          .",
".                                                          .",
".                                                          .",
".                                                          .",
".                                                          .",
".                                                          .",
".                                                          .",
".                                                          .",
".                                                          .",
".                                                          .",
"............................................................"
};
