/* XPM */
static char *_1556_5315a8652d2feeffe989dd0428fe232c849a420b179976aa24c7733e5c929a83[] = {
/* columns rows colors chars-per-pixel */
"60 60 2 1 ",
"  c gray26",
". c white",
/* pixels */
"............................................................",
".                                                          .",
".                                                          .",
".                                                          .",
".                                                          .",
".                                                          .",
".                                                          .",
".                                                          .",
".                                                          .",
".                                                          .",
".                                                          .",
".                                                          .",
".                                                          .",
".                                                          .",
".                                                          .",
".                                                          .",
".                                                          .",
".                                                          .",
".                                                          .",
".                                                          .",
".                                                          .",
".                                                          .",
".                                                          .",
".                                                          .",
".                                                          .",
".                                                          .",
".                                                          .",
".                                                          .",
".                                                          .",
".                                                          .",
".                                                          .",
".                                                          .",
".                                                          .",
".                                                          .",
".                                                          .",
".                                                          .",
".                                                          .",
".                                                          .",
".                                                          .",
".                                                          .",
".                                                          .",
".                                                          .",
".                                                          .",
".                                                          .",
".                                                          .",
".                                                          .",
".                                                          .",
".                                                          .",
".                                                          .",
".                                                          .",
".                                                          .",
".                                                          .",
".                                                          .",
".                                                          .",
".                                                          .",
".                                                          .",
".                                                          .",
".                                                          .",
".                                                          .",
"............................................................"
};
