/* XPM */
static char *_2718_41bf9e7ae18469b2c3fb9cce307eb7007270d9f56e98d787cc95bce84f620685[] = {
/* columns rows colors chars-per-pixel */
"60 60 2 1 ",
"  c #795548",
". c #D32F2F",
/* pixels */
"............................................................",
".                                                          .",
".                                                          .",
".                                                          .",
".                                                          .",
".                                                          .",
".                                                          .",
".                                                          .",
".                                                          .",
".                                                          .",
".                                                          .",
".                                                          .",
".                                                          .",
".                                                          .",
".                                                          .",
".                                                          .",
".                                                          .",
".                                                          .",
".                                                          .",
".                                                          .",
".                                                          .",
".                                                          .",
".                                                          .",
".                                                          .",
".                                                          .",
".                                                          .",
".                                                          .",
".                                                          .",
".                                                          .",
".                                                          .",
".                                                          .",
".                                                          .",
".                                                          .",
".                                                          .",
".                                                          .",
".                                                          .",
".                                                          .",
".                                                          .",
".                                                          .",
".                                                          .",
".                                                          .",
".                                                          .",
".                                                          .",
".                                                          .",
".                                                          .",
".                                                          .",
".                                                          .",
".                                                          .",
".                                                          .",
".                                                          .",
".                                                          .",
".                                                          .",
".                                                          .",
".                                                          .",
".                                                          .",
".                                                          .",
".                                                          .",
".                                                          .",
".                                                          .",
"............................................................"
};
